<svg version="1.1" id="Layer_1" xmlns="http://www.w3.org/2000/svg" xmlns:xlink="http://www.w3.org/1999/xlink" x="0px" y="0px"
	 width="100%" viewBox="0 0 1024 1024" enable-background="new 0 0 1024 1024" xml:space="preserve">
<path fill="#000000" opacity="1.000000" stroke="none" 
	d="
M496.000000,1025.000000 
	C330.666656,1025.000000 165.833328,1025.000000 1.000000,1025.000000 
	C1.000000,683.666687 1.000000,342.333344 1.000000,1.000000 
	C342.333344,1.000000 683.666687,1.000000 1025.000000,1.000000 
	C1025.000000,342.333344 1025.000000,683.666687 1025.000000,1025.000000 
	C848.833313,1025.000000 672.666687,1025.000000 496.000000,1025.000000 
M575.494934,710.060242 
	C579.748230,691.782654 582.065674,673.426208 578.921631,654.647949 
	C573.536987,622.487671 548.545288,598.863770 516.248352,595.588135 
	C478.136719,591.722839 440.396362,623.304565 442.898682,662.532776 
	C444.379700,685.750549 455.029602,703.154724 476.127045,713.230652 
	C496.184998,722.810059 515.462646,720.466187 533.418396,707.340332 
	C533.884216,706.999939 534.532837,706.909607 535.798889,706.444458 
	C530.158081,762.367371 503.450806,807.533508 467.981598,848.854004 
	C470.371307,848.636963 472.306213,848.042786 473.927368,846.973145 
	C493.662659,833.952026 510.956909,818.183289 526.119812,800.080078 
	C548.333618,773.558716 565.999390,744.512146 575.494934,710.060242 
M791.020264,454.532410 
	C785.319763,451.104614 779.740112,447.453827 773.898315,444.286652 
	C744.736450,428.476318 714.013184,418.199188 680.361511,421.095917 
	C637.306946,424.802032 608.943604,461.125092 614.637756,499.888458 
	C620.302185,538.449158 658.699829,564.960815 696.009094,554.357849 
	C731.445618,544.287109 753.123718,499.786163 723.278992,466.150146 
	C722.828308,465.642181 722.588562,464.946991 721.988159,463.867981 
	C773.891785,466.884338 817.354492,489.024048 858.453125,518.504456 
	C858.480591,516.891785 858.260315,515.217651 857.374512,514.046997 
	C839.268188,490.115814 816.810791,471.000763 791.020264,454.532410 
M397.848694,455.671326 
	C393.827698,450.813538 390.276154,445.452026 385.701324,441.188507 
	C369.196198,425.806183 349.416229,419.745575 327.599365,425.358887 
	C286.248413,435.998138 273.239075,481.888214 302.051453,513.346741 
	C303.577271,515.012695 305.136505,516.648010 307.263275,518.920654 
	C280.740692,522.057312 256.723785,515.558044 233.198257,506.466736 
	C209.570480,497.335846 188.259033,484.012848 167.377487,469.421906 
	C167.483887,471.294128 167.856659,472.969513 168.820496,474.170624 
	C199.012650,511.797394 237.203339,538.052307 283.000153,552.833679 
	C307.589569,560.770264 332.825623,563.167419 358.219421,555.980652 
	C401.190948,543.819092 420.847382,494.712463 397.848694,455.671326 
M490.190094,387.243042 
	C530.375427,398.884979 572.700867,371.284424 574.605286,329.321106 
	C576.282532,292.362122 538.413635,263.477875 503.683746,275.982239 
	C497.552094,278.189941 491.804657,281.464813 485.320343,284.509552 
	C485.685028,281.391144 485.885773,278.322845 486.420013,275.313751 
	C492.199890,242.760620 507.244720,214.502457 527.180481,188.644699 
	C533.470825,180.485748 540.668396,173.027695 547.399536,165.204742 
	C548.063782,164.432678 548.367737,163.350555 548.838867,162.412338 
	C547.717285,162.557907 546.424255,162.393677 545.503784,162.902847 
	C541.578613,165.074158 537.666199,167.296844 533.923706,169.765457 
	C500.789612,191.621155 475.579590,220.751709 457.171967,255.615555 
	C445.432037,277.850708 437.441345,301.298492 439.773956,327.255310 
	C442.305542,355.426758 461.850250,379.399384 490.190094,387.243042 
M463.490021,525.979492 
	C473.438141,538.526123 486.199005,545.989075 502.158844,548.399048 
	C535.221985,553.391602 566.608643,527.833984 568.007996,494.463501 
	C569.395874,461.368561 544.185913,434.833160 510.187134,434.503326 
	C486.844543,434.276947 469.033813,445.182739 458.184265,465.591553 
	C447.271027,486.120148 450.128937,506.380768 463.490021,525.979492 
z"/>
<path fill="#FCFCFD" opacity="1.000000" stroke="none" 
	d="
M575.362915,710.447998 
	C565.999390,744.512146 548.333618,773.558716 526.119812,800.080078 
	C510.956909,818.183289 493.662659,833.952026 473.927368,846.973145 
	C472.306213,848.042786 470.371307,848.636963 467.981598,848.854004 
	C503.450806,807.533508 530.158081,762.367371 535.798889,706.444458 
	C534.532837,706.909607 533.884216,706.999939 533.418396,707.340332 
	C515.462646,720.466187 496.184998,722.810059 476.127045,713.230652 
	C455.029602,703.154724 444.379700,685.750549 442.898682,662.532776 
	C440.396362,623.304565 478.136719,591.722839 516.248352,595.588135 
	C548.545288,598.863770 573.536987,622.487671 578.921631,654.647949 
	C582.065674,673.426208 579.748230,691.782654 575.362915,710.447998 
z"/>
<path fill="#FCFCFD" opacity="1.000000" stroke="none" 
	d="
M791.328613,454.723633 
	C816.810791,471.000763 839.268188,490.115814 857.374512,514.046997 
	C858.260315,515.217651 858.480591,516.891785 858.453125,518.504456 
	C817.354492,489.024048 773.891785,466.884338 721.988159,463.867981 
	C722.588562,464.946991 722.828308,465.642181 723.278992,466.150146 
	C753.123718,499.786163 731.445618,544.287109 696.009094,554.357849 
	C658.699829,564.960815 620.302185,538.449158 614.637756,499.888458 
	C608.943604,461.125092 637.306946,424.802032 680.361511,421.095917 
	C714.013184,418.199188 744.736450,428.476318 773.898315,444.286652 
	C779.740112,447.453827 785.319763,451.104614 791.328613,454.723633 
z"/>
<path fill="#FCFCFD" opacity="1.000000" stroke="none" 
	d="
M398.008301,456.000793 
	C420.847382,494.712463 401.190948,543.819092 358.219421,555.980652 
	C332.825623,563.167419 307.589569,560.770264 283.000153,552.833679 
	C237.203339,538.052307 199.012650,511.797394 168.820496,474.170624 
	C167.856659,472.969513 167.483887,471.294128 167.377487,469.421906 
	C188.259033,484.012848 209.570480,497.335846 233.198257,506.466736 
	C256.723785,515.558044 280.740692,522.057312 307.263275,518.920654 
	C305.136505,516.648010 303.577271,515.012695 302.051453,513.346741 
	C273.239075,481.888214 286.248413,435.998138 327.599365,425.358887 
	C349.416229,419.745575 369.196198,425.806183 385.701324,441.188507 
	C390.276154,445.452026 393.827698,450.813538 398.008301,456.000793 
z"/>
<path fill="#FCFCFD" opacity="1.000000" stroke="none" 
	d="
M489.788910,387.172180 
	C461.850250,379.399384 442.305542,355.426758 439.773956,327.255310 
	C437.441345,301.298492 445.432037,277.850708 457.171967,255.615555 
	C475.579590,220.751709 500.789612,191.621155 533.923706,169.765457 
	C537.666199,167.296844 541.578613,165.074158 545.503784,162.902847 
	C546.424255,162.393677 547.717285,162.557907 548.838867,162.412354 
	C548.367737,163.350555 548.063782,164.432678 547.399536,165.204742 
	C540.668396,173.027695 533.470825,180.485748 527.180481,188.644699 
	C507.244720,214.502457 492.199890,242.760620 486.420013,275.313751 
	C485.885773,278.322845 485.685028,281.391144 485.320343,284.509552 
	C491.804657,281.464813 497.552094,278.189941 503.683746,275.982239 
	C538.413635,263.477875 576.282532,292.362122 574.605286,329.321106 
	C572.700867,371.284424 530.375427,398.884979 489.788910,387.172180 
z"/>
<path fill="#FDFDFD" opacity="1.000000" stroke="none" 
	d="
M463.277100,525.688721 
	C450.128937,506.380768 447.271027,486.120148 458.184265,465.591553 
	C469.033813,445.182739 486.844543,434.276947 510.187134,434.503326 
	C544.185913,434.833160 569.395874,461.368561 568.007996,494.463501 
	C566.608643,527.833984 535.221985,553.391602 502.158844,548.399048 
	C486.199005,545.989075 473.438141,538.526123 463.277100,525.688721 
z"/>
</svg>